<svg version="1.1" viewBox="0 0 96 96" xmlns="http://www.w3.org/2000/svg" xmlns:xlink="http://www.w3.org/1999/xlink" id="Icons_Telescope" overflow="hidden"><path d=" M 49.7 35.4 L 72.4 25.9 L 68.6 16.7 L 16.4 38.3 L 20.2 47.5 L 43.8 37.7 L 26.6 79.2 C 26.2 80.2 26.7 81.4 27.7 81.8 C 28 82 28.2 82 28.5 82 C 29.3 82 30 81.5 30.3 80.8 L 38.9 60 L 45.2 60 L 45.2 84 C 45.2 85.1 46.1 86 47.2 86 C 48.3 86 49.2 85.1 49.2 84 L 49.2 60 L 55.5 60 L 64.1 80.8 C 64.4 81.6 65.2 82 65.9 82 C 66.2 82 66.4 82 66.7 81.8 C 67.7 81.4 68.2 80.2 67.8 79.2 L 49.7 35.4 Z M 40.6 56 L 45.2 44.8 L 45.2 56 L 40.6 56 Z M 49.2 56 L 49.2 44.8 L 53.9 56 L 49.2 56 Z"/><rect x="10.6" y="43.1" width="4" height="4.4" transform="matrix(-0.3827,-0.9239,0.9239,-0.3827,-24.4682,74.2685)"/><path d=" M 80.9 9.5 L 71.4 13.2 L 76.8 26.2 L 86.2 22.4 Z"/></svg>